<?xml version="1.0" encoding="UTF-8" standalone="no"?>
<svg width="40px" height="40px" viewBox="0 0 40 40" version="1.1" xmlns="http://www.w3.org/2000/svg" xmlns:xlink="http://www.w3.org/1999/xlink">
    <!-- Generator: Sketch 40 (33762) - http://www.bohemiancoding.com/sketch -->
    <title>Group</title>
    <desc>Created with Sketch.</desc>
    <defs></defs>
    <g id="Page-1" stroke="none" stroke-width="1" fill="none" fill-rule="evenodd">
        <g id="Group">
            <circle id="Oval" fill="#FFFFFF" cx="20" cy="20" r="20"></circle>
            <path d="M8.50363636,29.4417273 C9.43227273,27.1385455 11.5480909,23.5246364 13.7776364,20.1717273 C14.0803636,19.7143636 14.3863636,19.2627273 14.6923636,18.8176364 L16.8589091,20.9841818 C17.1788182,21.3032727 17.6967273,21.3032727 18.0158182,20.9841818 C18.3357273,20.6642727 18.3357273,20.1463636 18.0158182,19.8264545 L15.6455455,17.4561818 C17.2467273,15.2094545 18.7603636,13.2932727 19.752,12.3057273 C20.7100909,11.3484545 21.9619091,10.8714545 23.2227273,10.8706364 C24.4835455,10.8714545 25.7361818,11.3484545 26.6942727,12.3057273 C27.6515455,13.2638182 28.1285455,14.5164545 28.1293636,15.7772727 C28.1285455,17.0372727 27.6515455,18.2899091 26.6942727,19.248 L23.8011818,16.3557273 C23.4820909,16.0358182 22.9641818,16.0358182 22.6442727,16.3557273 C22.3251818,16.6748182 22.3251818,17.1927273 22.6442727,17.5126364 L25.4776364,20.346 C23.8592727,21.7123636 21.4104545,23.5099091 18.8282727,25.2223636 C17.8873636,25.8482727 16.9268182,26.4619091 15.9785455,27.0460909 L14.5450909,25.6126364 C14.2251818,25.2927273 13.7072727,25.2927273 13.3873636,25.6126364 C13.0682727,25.9317273 13.0682727,26.4496364 13.3873636,26.7695455 L14.5344545,27.9158182 C12.6436364,29.0301818 10.8820909,29.9620909 9.55909091,30.4963636 L9.25390909,30.5585455 C9.04690909,30.5585455 8.84236364,30.4693636 8.68609091,30.3139091 C8.53063636,30.1576364 8.44063636,29.9530909 8.44145455,29.7460909 L8.50363636,29.4417273 L8.50363636,29.4417273 Z M9.25718182,32.1949091 C9.56154545,32.1949091 9.87327273,32.136 10.1743636,32.0132727 C12.6902727,30.9913636 16.3180909,28.8518182 19.734,26.5854545 C23.1499091,24.3133636 26.3015455,21.9504545 27.8511818,20.4057273 C29.1267273,19.1301818 29.7665455,17.4496364 29.7657273,15.7772727 C29.7657273,14.6612727 29.4752727,13.3636364 28.9074545,12.5454545 L32.1818182,12.5454545 C32.6334545,12.5454545 33,12.1789091 33,11.7272727 C33,11.2756364 32.6334545,10.9090909 32.1818182,10.9090909 L29.2478182,10.9090909 L31.9011818,8.25572727 C32.2202727,7.93663636 32.2202727,7.41872727 31.9011818,7.09881818 C31.5812727,6.77972727 31.0633636,6.77972727 30.7442727,7.09881818 L28.0909091,9.75218182 L28.0909091,6.81818182 C28.0909091,6.36654545 27.7243636,6 27.2727273,6 C26.8210909,6 26.4545455,6.36654545 26.4545455,6.81818182 L26.4545455,10.0925455 C25.6363636,9.52472727 24.3387273,9.23427273 23.2227273,9.23427273 C21.5503636,9.23345455 19.869,9.87327273 18.5942727,11.1488182 C17.0495455,12.6984545 14.6866364,15.8500909 12.4145455,19.266 C10.1481818,22.6819091 8.00863636,26.3113636 6.98672727,28.8264545 C6.864,29.1283636 6.80509091,29.4417273 6.80509091,29.7460909 C6.81818182,31.0960909 7.90636364,32.1818182 9.25718182,32.1949091 L9.25718182,32.1949091 Z" id="Fill-107" fill="#F69454"></path>
        </g>
    </g>
</svg>