<?xml version="1.0" encoding="UTF-8" standalone="no"?>
<svg width="25px" height="39px" viewBox="0 0 25 39" version="1.1" xmlns="http://www.w3.org/2000/svg" xmlns:xlink="http://www.w3.org/1999/xlink">
    <!-- Generator: Sketch 40 (33762) - http://www.bohemiancoding.com/sketch -->
    <title>Meal</title>
    <desc>Created with Sketch.</desc>
    <defs>
        <rect id="path-1" x="0" y="22" width="6" height="16" rx="2"></rect>
        <mask id="mask-2" maskContentUnits="userSpaceOnUse" maskUnits="objectBoundingBox" x="0" y="0" width="6" height="16" fill="white">
            <use xlink:href="#path-1"></use>
        </mask>
        <rect id="path-3" x="1" y="22" width="6" height="16" rx="2"></rect>
        <mask id="mask-4" maskContentUnits="userSpaceOnUse" maskUnits="objectBoundingBox" x="0" y="0" width="6" height="16" fill="white">
            <use xlink:href="#path-3"></use>
        </mask>
    </defs>
    <g id="Page-1" stroke="none" stroke-width="1" fill="none" fill-rule="evenodd">
        <g id="Meal" transform="translate(-7.000000, -1.000000)" stroke="#A9E200">
            <g id="Icon" transform="translate(8.000000, 2.000000)">
                <g id="knife-+-fork">
                    <g id="knife" transform="translate(15.000000, 0.000000)">
                        <use id="Line-217" mask="url(#mask-2)" stroke-width="4" stroke-linecap="square" xlink:href="#path-1"></use>
                        <path d="M3,23 L3,0 C3,0 8,0 8,17 L3,17" id="Line-216" stroke-width="2" stroke-linecap="round" stroke-linejoin="round"></path>
                    </g>
                    <g id="fork">
                        <use id="Line-215" mask="url(#mask-4)" stroke-width="4" stroke-linecap="square" xlink:href="#path-3"></use>
                        <path d="M3,23 L3,0" id="Line-214" stroke-width="2" stroke-linecap="round" stroke-linejoin="round"></path>
                        <path d="M0,5.68434189e-14 L5.58113492e-16,10.9966488 C6.42297839e-16,12.6553538 1.33902013,14 3.00166547,14 L4.99833453,14 C6.65610859,14 8,12.6576211 8,10.9966488 L8,0" id="Line-213" stroke-width="2" stroke-linecap="round" stroke-linejoin="round"></path>
                    </g>
                </g>
            </g>
        </g>
    </g>
</svg>