<?xml version="1.0" encoding="UTF-8" standalone="no"?>
<svg width="36px" height="37px" viewBox="0 0 36 37" version="1.1" xmlns="http://www.w3.org/2000/svg" xmlns:xlink="http://www.w3.org/1999/xlink">
    <!-- Generator: Sketch 40 (33762) - http://www.bohemiancoding.com/sketch -->
    <title>Film</title>
    <desc>Created with Sketch.</desc>
    <defs>
        <path d="M34.8451408,33.0002437 C34.8451408,33.5517848 34.4326364,33.8025669 33.9356707,33.5660373 L23.2548574,28.4825329 L23.2548574,21.6098056 L33.9356707,16.5656769 C34.4379571,16.3284667 34.8451408,16.5777229 34.8451408,17.1348234 L34.8451408,33.0002437 Z" id="path-1"></path>
        <mask id="mask-2" maskContentUnits="userSpaceOnUse" maskUnits="objectBoundingBox" x="0" y="0" width="11.5902834" height="16.4990265" fill="white">
            <use xlink:href="#path-1"></use>
        </mask>
        <circle id="path-3" cx="6" cy="5" r="5"></circle>
        <mask id="mask-4" maskContentUnits="userSpaceOnUse" maskUnits="objectBoundingBox" x="0" y="0" width="10" height="10" fill="white">
            <use xlink:href="#path-3"></use>
        </mask>
        <circle id="path-5" cx="18" cy="5" r="5"></circle>
        <mask id="mask-6" maskContentUnits="userSpaceOnUse" maskUnits="objectBoundingBox" x="0" y="0" width="10" height="10" fill="white">
            <use xlink:href="#path-5"></use>
        </mask>
    </defs>
    <g id="Page-1" stroke="none" stroke-width="1" fill="none" fill-rule="evenodd">
        <g id="Film" transform="translate(-2.000000, -2.000000)" stroke="#A9E200">
            <g id="Icon" transform="translate(3.000000, 2.000000)">
                <path d="M21.0909091,36 L3.18181818,36 C1.42545455,36 0,34.5777273 0,32.8181818 L0,16.9090909 C0,15.1495455 1.42545455,13.7272727 3.18181818,13.7272727 L21.0909091,13.7272727 C22.8472727,13.7272727 24.2727273,15.1495455 24.2727273,16.9090909 L24.2727273,32.8181818 C24.2727273,34.5777273 22.8472727,36 21.0909091,36 Z" id="Line-85" stroke-width="2" stroke-linecap="round" stroke-linejoin="round"></path>
                <use id="Line-84" mask="url(#mask-2)" stroke-width="4" xlink:href="#path-1"></use>
                <use id="Line-83" mask="url(#mask-4)" stroke-width="4" xlink:href="#path-3"></use>
                <use id="Line-82" mask="url(#mask-6)" stroke-width="4" xlink:href="#path-5"></use>
            </g>
        </g>
    </g>
</svg>